<mxfile host="app.diagrams.net" agent="Mozilla/5.0 (Windows NT 10.0; Win64; x64) AppleWebKit/537.36 (KHTML, like Gecko) Chrome/128.0.0.0 Safari/537.36" version="24.8.3">
  <diagram name="Trang-1" id="EYRnnLp1M4ovaH2uKZS4">
    <mxGraphModel dx="1050" dy="603" grid="0" gridSize="10" guides="1" tooltips="1" connect="1" arrows="1" fold="1" page="1" pageScale="1" pageWidth="1169" pageHeight="827" math="0" shadow="0">
      <root>
        <mxCell id="0" />
        <mxCell id="1" parent="0" />
        <mxCell id="0kkNkf35LYRXYgW7FDWw-3" style="edgeStyle=orthogonalEdgeStyle;rounded=0;orthogonalLoop=1;jettySize=auto;html=1;exitX=0.5;exitY=1;exitDx=0;exitDy=0;entryX=0.5;entryY=0;entryDx=0;entryDy=0;" edge="1" parent="1" source="0kkNkf35LYRXYgW7FDWw-1" target="0kkNkf35LYRXYgW7FDWw-2">
          <mxGeometry relative="1" as="geometry" />
        </mxCell>
        <mxCell id="0kkNkf35LYRXYgW7FDWw-1" value="Lấy dữ liệu từ firebase" style="rounded=0;whiteSpace=wrap;html=1;" vertex="1" parent="1">
          <mxGeometry x="400" y="120" width="120" height="40" as="geometry" />
        </mxCell>
        <mxCell id="0kkNkf35LYRXYgW7FDWw-6" style="edgeStyle=orthogonalEdgeStyle;rounded=0;orthogonalLoop=1;jettySize=auto;html=1;exitX=0.5;exitY=1;exitDx=0;exitDy=0;entryX=0.5;entryY=0;entryDx=0;entryDy=0;" edge="1" parent="1" source="0kkNkf35LYRXYgW7FDWw-2" target="0kkNkf35LYRXYgW7FDWw-5">
          <mxGeometry relative="1" as="geometry" />
        </mxCell>
        <mxCell id="0kkNkf35LYRXYgW7FDWw-2" value="Hiển thị dữ liệu lên màn hình" style="rounded=0;whiteSpace=wrap;html=1;" vertex="1" parent="1">
          <mxGeometry x="400" y="200" width="120" height="40" as="geometry" />
        </mxCell>
        <mxCell id="0kkNkf35LYRXYgW7FDWw-7" style="edgeStyle=orthogonalEdgeStyle;rounded=0;orthogonalLoop=1;jettySize=auto;html=1;exitX=0;exitY=0.5;exitDx=0;exitDy=0;entryX=0;entryY=0.5;entryDx=0;entryDy=0;" edge="1" parent="1" source="0kkNkf35LYRXYgW7FDWw-5" target="0kkNkf35LYRXYgW7FDWw-1">
          <mxGeometry relative="1" as="geometry" />
        </mxCell>
        <mxCell id="0kkNkf35LYRXYgW7FDWw-10" style="edgeStyle=orthogonalEdgeStyle;rounded=0;orthogonalLoop=1;jettySize=auto;html=1;exitX=1;exitY=0.5;exitDx=0;exitDy=0;entryX=0;entryY=0.5;entryDx=0;entryDy=0;" edge="1" parent="1" source="0kkNkf35LYRXYgW7FDWw-5" target="0kkNkf35LYRXYgW7FDWw-9">
          <mxGeometry relative="1" as="geometry" />
        </mxCell>
        <mxCell id="0kkNkf35LYRXYgW7FDWw-5" value="Kiểm tra các chỉ số" style="rhombus;whiteSpace=wrap;html=1;" vertex="1" parent="1">
          <mxGeometry x="360" y="280" width="200" height="120" as="geometry" />
        </mxCell>
        <mxCell id="0kkNkf35LYRXYgW7FDWw-8" value="Bình thường" style="text;html=1;align=center;verticalAlign=middle;resizable=0;points=[];autosize=1;strokeColor=none;fillColor=none;" vertex="1" parent="1">
          <mxGeometry x="280" y="340" width="90" height="30" as="geometry" />
        </mxCell>
        <mxCell id="0kkNkf35LYRXYgW7FDWw-11" style="edgeStyle=orthogonalEdgeStyle;rounded=0;orthogonalLoop=1;jettySize=auto;html=1;exitX=0.5;exitY=0;exitDx=0;exitDy=0;entryX=1;entryY=0.5;entryDx=0;entryDy=0;" edge="1" parent="1" source="0kkNkf35LYRXYgW7FDWw-9" target="0kkNkf35LYRXYgW7FDWw-1">
          <mxGeometry relative="1" as="geometry" />
        </mxCell>
        <mxCell id="0kkNkf35LYRXYgW7FDWw-9" value="Gửi thông báo đẩy" style="rounded=0;whiteSpace=wrap;html=1;" vertex="1" parent="1">
          <mxGeometry x="640" y="320" width="120" height="40" as="geometry" />
        </mxCell>
      </root>
    </mxGraphModel>
  </diagram>
</mxfile>
